<?xml version="1.0" encoding="iso-8859-1"?>
<!-- Generator: Adobe Illustrator 19.0.0, SVG Export Plug-In . SVG Version: 6.00 Build 0)  -->
<svg version="1.1" id="Layer_1" xmlns="http://www.w3.org/2000/svg" xmlns:xlink="http://www.w3.org/1999/xlink" x="0px" y="0px"
	 viewBox="0 0 368 368" style="enable-background:new 0 0 368 368;" xml:space="preserve">
<g transform="translate(18 22)">
	<g>
		<path style="fill:#80D440;" d="M262,199.2v129.6L170.8,258c-5.6-4.4-12.4-6.8-19.6-6.8H22c-17.6,0-32-14.4-32-32v-192
			c0-17.6,14.4-32,32-32h288c17.6,0,32,14.4,32,32v192c0,17.6-14.4,32-32,32h-48"/>
		<path style="fill:#6EA62B;" d="M262,336.8c-1.6,0-3.6-0.4-4.8-1.6L166,264.4c-4.4-3.2-9.2-5.2-14.8-5.2H22c-22,0-40-18-40-40v-192
			c0-22,18-40,40-40h288c22,0,40,18,40,40v192c0,22-18,40-40,40h-40v69.6c0,3.2-1.6,6-4.4,7.2C264.4,336.4,263.2,336.8,262,336.8z
			 M22,3.2C8.8,3.2-2,14-2,27.2v192c0,13.2,10.8,24,24,24h129.2c8.8,0,17.6,2.8,24.4,8.4l78.4,60.8V199.2c0-4.4,3.6-8,8-8s8,3.6,8,8
			v44h40c13.2,0,24-10.8,24-24v-192c0-13.2-10.8-24-24-24H22z"/>
	</g>
	<path style="fill:#68B82B;" d="M270,195.2l48,48h-48V195.2z"/>
	<g>
		<path style="fill:#FFFFFF;" d="M230,83.2H66c-4.4,0-8-3.6-8-8s3.6-8,8-8h164c4.4,0,8,3.6,8,8S234.4,83.2,230,83.2z"/>
		<path style="fill:#FFFFFF;" d="M190,179.2H66c-4.4,0-8-3.6-8-8s3.6-8,8-8h124c4.4,0,8,3.6,8,8S194.4,179.2,190,179.2z"/>
		<path style="fill:#FFFFFF;" d="M222,131.2H66c-4.4,0-8-3.6-8-8s3.6-8,8-8h156c4.4,0,8,3.6,8,8S226.4,131.2,222,131.2z"/>
		<path style="fill:#FFFFFF;" d="M270,131.2h-12c-4.4,0-8-3.6-8-8s3.6-8,8-8h12c4.4,0,8,3.6,8,8S274.4,131.2,270,131.2z"/>
	</g>
</g>
<g>
</g>
<g>
</g>
<g>
</g>
<g>
</g>
<g>
</g>
<g>
</g>
<g>
</g>
<g>
</g>
<g>
</g>
<g>
</g>
<g>
</g>
<g>
</g>
<g>
</g>
<g>
</g>
<g>
</g>
</svg>
